PathFileType	4	(X/Y/Z)	/Users/itak/Documents/Research/Walk-IL/dataset/trc/00533_00183.trc
DataRate	CameraRate	NumFrames	NumMarkers	Units	OrigDataRate	OrigDataStartFrame	OrigNumFrames
100.000000	100.000000	4	53	mm	100.000000	456	522
Frame#	Time	RPSI			LPSI			L3			STRN			T10			C7			CLAV			RBAK			LBAK			LSHO			LUPA			LAEL			LAOL			LWTS			LWPS			LFRA			LIFD			LHPS			LHTS			RSHO			RUPA			RAEL			RAOL			RWTS			RWPS			RFRA			RIFD			RHTS			RHPS			RBHD			LFHD			RFHD			LBHD			LHIP			RHIP			RASI			LASI			LKNE			LTHI			LANK			LTIP			LTOE			LMT1			LMT5			LHEE			RKNE			RTHI			RANK			RTIP			RTOE			RMT1			RMT5			RHEE			
		X1	Y1	Z1	X2	Y2	Z2	X3	Y3	Z3	X4	Y4	Z4	X5	Y5	Z5	X6	Y6	Z6	X7	Y7	Z7	X8	Y8	Z8	X9	Y9	Z9	X10	Y10	Z10	X11	Y11	Z11	X12	Y12	Z12	X13	Y13	Z13	X14	Y14	Z14	X15	Y15	Z15	X16	Y16	Z16	X17	Y17	Z17	X18	Y18	Z18	X19	Y19	Z19	X20	Y20	Z20	X21	Y21	Z21	X22	Y22	Z22	X23	Y23	Z23	X24	Y24	Z24	X25	Y25	Z25	X26	Y26	Z26	X27	Y27	Z27	X28	Y28	Z28	X29	Y29	Z29	X30	Y30	Z30	X31	Y31	Z31	X32	Y32	Z32	X33	Y33	Z33	X34	Y34	Z34	X35	Y35	Z35	X36	Y36	Z36	X37	Y37	Z37	X38	Y38	Z38	X39	Y39	Z39	X40	Y40	Z40	X41	Y41	Z41	X42	Y42	Z42	X43	Y43	Z43	X44	Y44	Z44	X45	Y45	Z45	X46	Y46	Z46	X47	Y47	Z47	X48	Y48	Z48	X49	Y49	Z49	X50	Y50	Z50	X51	Y51	Z51	X52	Y52	Z52	X53	Y53	Z53	

457	4.56	780.7377319335938	954.9855346679688	612.984619140625	845.5377807617188	954.0371704101562	506.6211242675781	798.8050537109375	1011.94921875	548.93017578125	988.8675537109375	1195.595825195312	634.7462158203125	777.2846069335938	1117.57080078125	541.7177734375	801.28662109375	1350.486694335938	551.6184692382812	949.8553466796875	1287.028076171875	614.2426147460938	732.7705078125	1226.819091796875	617.739990234375	815.4349975585938	1292.1591796875	465.7218017578125	926.6381225585938	1343.695068359375	429.7218627929688	935.2601928710938	1215.788452148438	371.7586975097656	947.8475341796875	1006.720825195312	349.822998046875	862.7279663085938	997.716552734375	401.7294616699219	1017.241760253906	813.5945434570312	398.1832580566406	946.6137084960938	783.5631713867188	345.9086608886719	960.4073486328125	920.625	350.0309753417969	1009.496215820312	655.6085815429688	406.1667785644531	963.885986328125	726.85546875	357.2673645019531	1024.179077148438	735.29541015625	381.3237915039062	794.1649780273438	1353.526977539062	708.953369140625	758.6864624023438	1286.854248046875	757.9734497070312	758.1566772460938	1022.022216796875	817.10009765625	733.4967651367188	1000.13916015625	758.049560546875	871.5487060546875	832.2468872070312	860.3193969726562	786.5230712890625	802.2327880859375	857.4264526367188	762.2962036132812	968.7283325195312	828.0845336914062	886.408203125	674.4892578125	876.8994750976562	878.5205688476562	742.3939208984375	896.7957763671875	812.1658325195312	731.7579345703125	876.9599609375	772.6136474609375	1501.203247070312	609.0199584960938	945.891845703125	1589.324340820312	559.458251953125	870.9581909179688	1584.34228515625	662.2835693359375	857.2789306640625	1499.880981445312	473.6264953613281	1004.238952636719	880.6915283203125	447.4805603027344	812.375244140625	859.0101928710938	774.9525146484375	931.5670776367188	904.8328857421875	767.3297729492188	1048.58203125	916.804443359375	554.3665161132812	976.6875610351562	459.9844360351562	490.8474426269531	1010.085632324219	616.2952880859375	477.7727661132812	854.3045654296875	45.87511825561523	435.0255432128906	940.424072265625	311.6749267578125	467.9851379394531	996.9082641601562	28.11367225646973	586.1046142578125	910.1097412109375	32.52629852294922	574.133544921875	951.0374145507812	35.99208068847656	481.79541015625	783.9542236328125	41.97075653076172	465.04443359375	809.61865234375	472.1443176269531	737.7752685546875	829.9944458007812	730.2310180664062	789.5321655273438	778.4467163085938	40.2095947265625	666.1132202148438	814.2549438476562	330.4548645019531	717.4589233398438	978.26318359375	32.9043083190918	717.6311645507812	934.3873901367188	39.32739639282227	655.7471923828125	873.2940673828125	36.46236801147461	729.7608642578125	753.2332153320312	32.47213363647461	599.70947265625	
458	4.57	781.1279296875	955.0467529296875	613.5634765625	845.3241577148438	954.1345825195312	506.995361328125	798.6129760742188	1012.06591796875	549.6192626953125	989.2376708984375	1195.485595703125	634.66552734375	777.26953125	1117.673217773438	542.594970703125	801.38134765625	1350.56787109375	552.4331665039062	950.198486328125	1286.966552734375	614.3486328125	733.200927734375	1226.906982421875	618.8462524414062	815.2030029296875	1292.254760742188	466.3942260742188	926.303466796875	1343.702880859375	429.9640197753906	934.8261108398438	1215.787963867188	372.0109558105469	948.03955078125	1006.744934082031	350.2115478515625	862.929931640625	997.5031127929688	402.0918273925781	1018.953308105469	814.5614624023438	398.8628234863281	948.5192260742188	783.7872314453125	346.626708984375	961.1259155273438	920.791748046875	350.4981079101562	1012.838562011719	656.5014038085938	406.8761291503906	966.3981323242188	727.0570068359375	358.034912109375	1026.651245117188	736.355712890625	382.0024719238281	795.0082397460938	1353.623046875	709.7384643554688	759.6751708984375	1286.977905273438	758.8651733398438	758.88134765625	1022.131652832031	817.8665771484375	734.0438232421875	1000.368835449219	758.8952026367188	871.4686279296875	831.513671875	860.1647338867188	786.0921020507812	802.0442504882812	857.6223754882812	762.8037719726562	968.84326171875	828.7753295898438	885.17919921875	673.5095825195312	875.9349365234375	877.8946533203125	741.3909912109375	896.1694946289062	811.369873046875	731.3486328125	876.686279296875	773.1593627929688	1501.327026367188	609.54443359375	946.5145263671875	1589.241455078125	560.0263061523438	871.5360717773438	1584.294189453125	662.8934936523438	857.7655639648438	1500.029174804688	474.1449584960938	1003.699829101562	880.7268676757812	447.2691345214844	813.5701904296875	858.9401245117188	775.3153686523438	932.2755737304688	904.6741943359375	767.3842163085938	1048.5029296875	916.7659912109375	554.0150146484375	976.555419921875	460.0230407714844	490.6729736328125	1009.865112304688	616.3243408203125	477.5050659179688	854.2523803710938	45.81472778320312	435.0345153808594	940.3155517578125	311.6990966796875	467.9046325683594	996.9072265625	28.12126159667969	586.10400390625	910.10400390625	32.52156066894531	574.1342163085938	951.03125	36.01190185546875	481.773193359375	783.9429321289062	41.9383430480957	465.0441284179688	809.904296875	472.0726318359375	737.9120483398438	830.7106323242188	730.1021118164062	789.8270874023438	778.4483642578125	40.20918655395508	666.1131591796875	814.406982421875	330.4248046875	717.5654296875	978.2766723632812	32.90043258666992	717.612060546875	934.3565673828125	39.26609039306641	655.73046875	873.3148803710938	36.47262954711914	729.7399291992188	753.218017578125	32.47603607177734	599.7206420898438	
459	4.58	781.4807739257812	955.1370849609375	614.1409912109375	845.0969848632812	954.2400512695312	507.3515930175781	798.4574584960938	1012.1953125	550.2826538085938	989.584716796875	1195.388427734375	634.5983276367188	777.2470092773438	1117.7783203125	543.4395141601562	801.4632568359375	1350.658569335938	553.2329711914062	950.5140991210938	1286.9189453125	614.4678955078125	733.6253051757812	1227.0087890625	619.8842163085938	814.9803466796875	1292.377685546875	467.0514221191406	925.9815063476562	1343.742431640625	430.2171630859375	934.4313354492188	1215.82470703125	372.2546081542969	948.3472900390625	1006.818786621094	350.5740051269531	863.2445678710938	997.3163452148438	402.3905944824219	1020.802368164062	815.58740234375	399.5339965820312	950.5830688476562	784.0792236328125	347.2886657714844	961.969970703125	921.0166015625	350.9290466308594	1016.300598144531	657.4669799804688	407.5465698242188	969.0555419921875	727.31982421875	358.7850341796875	1029.253784179688	737.475830078125	382.6579895019531	795.8097534179688	1353.713500976562	710.5001220703125	760.601806640625	1287.095336914062	759.7210693359375	759.5552368164062	1022.224731445312	818.5830078125	734.541748046875	1000.581359863281	759.68798828125	871.3839721679688	830.8024291992188	859.9739379882812	785.6587524414062	801.8628540039062	857.7894897460938	763.268798828125	968.95654296875	829.4236450195312	883.9606323242188	672.5621337890625	874.9410400390625	877.2843017578125	740.4188842773438	895.5049438476562	810.5612182617188	730.9671630859375	876.3786010742188	773.7266845703125	1501.478515625	610.0458374023438	947.1424560546875	1589.15185546875	560.5707397460938	872.1319580078125	1584.26904296875	663.4769897460938	858.2352905273438	1500.182006835938	474.6490173339844	1003.164306640625	880.7710571289062	447.0582580566406	814.705322265625	858.8681030273438	775.6593627929688	932.9984741210938	904.5309448242188	767.4393920898438	1048.396728515625	916.7344360351562	553.6621704101562	976.4280395507812	460.0909118652344	490.4725036621094	1009.627685546875	616.361572265625	477.2103271484375	854.180908203125	45.7546501159668	435.0297546386719	940.1903686523438	311.7338256835938	467.7971801757812	996.9051513671875	28.13035202026367	586.0982055664062	910.0986328125	32.52097320556641	574.130126953125	951.0201416015625	36.02049255371094	481.75537109375	783.9379272460938	41.9110107421875	465.0408020019531	810.16015625	472.0119934082031	738.0316162109375	831.3467407226562	729.9730834960938	790.0982055664062	778.4534301757812	40.21240234375	666.1126098632812	814.5340576171875	330.3940734863281	717.6585693359375	978.2883911132812	32.89653015136719	717.5949096679688	934.322021484375	39.2049560546875	655.7177124023438	873.3359375	36.48324584960938	729.7203369140625	753.2013549804688	32.47879028320312	599.7335205078125	
460	4.59	781.7620239257812	955.253173828125	614.7206420898438	844.8460693359375	954.3507080078125	507.6962585449219	798.3465576171875	1012.328674316406	550.9063110351562	989.90673828125	1195.302612304688	634.5513305664062	777.2207641601562	1117.885375976562	544.2416381835938	801.5487670898438	1350.761474609375	554.0096435546875	950.814697265625	1286.879760742188	614.6063842773438	734.0344848632812	1227.1279296875	620.8484497070312	814.7688598632812	1292.520874023438	467.6978759765625	925.6782836914062	1343.810913085938	430.4845886230469	934.0830078125	1215.899169921875	372.4932861328125	948.7662353515625	1006.938720703125	350.9052124023438	863.659423828125	997.1573486328125	402.6237182617188	1022.755798339844	816.6622314453125	400.1867370605469	952.7936401367188	784.4362182617188	347.8826904296875	962.9312133789062	921.296142578125	351.3274230957031	1019.852233886719	658.4988403320312	408.1807861328125	971.8364868164062	727.6978759765625	359.5097961425781	1031.9609375	738.6483154296875	383.2895202636719	796.567626953125	1353.7919921875	711.239501953125	761.4627685546875	1287.202514648438	760.5386962890625	760.1757202148438	1022.293579101562	819.24560546875	734.9645385742188	1000.783020019531	760.4195556640625	871.2963256835938	830.1185302734375	859.7595825195312	785.2490234375	801.6922607421875	857.9218139648438	763.6970825195312	969.0579223632812	830.0205078125	882.7789306640625	671.6603393554688	873.9507446289062	876.6951293945312	739.4895629882812	894.8247680664062	809.7725219726562	730.6370849609375	876.0618286132812	774.3008422851562	1501.652465820312	610.5313110351562	947.768310546875	1589.056518554688	561.09765625	872.7482299804688	1584.265747070312	664.0343627929688	858.6849975585938	1500.333129882812	475.1394653320312	1002.638671875	880.8236694335938	446.8493041992188	815.71044921875	858.7901611328125	775.988525390625	933.7380981445312	904.403076171875	767.5015869140625	1048.26513671875	916.7073974609375	553.3101806640625	976.2953491210938	460.1832580566406	490.2486572265625	1009.365356445312	616.4041748046875	476.8911743164062	854.092529296875	45.69466018676758	435.0132751464844	940.0484008789062	311.7749328613281	467.6658935546875	996.9013061523438	28.13931846618652	586.0879516601562	910.093017578125	32.52376937866211	574.1221313476562	951.0099487304688	36.02016448974609	481.7414245605469	783.93505859375	41.8845329284668	465.038818359375	810.3904418945312	471.9607543945312	738.134033203125	831.8975830078125	729.8413696289062	790.3478393554688	778.4610595703125	40.21883773803711	666.1114501953125	814.6364135742188	330.3573608398438	717.7399291992188	978.2968139648438	32.89180755615234	717.5802612304688	934.2860107421875	39.14600372314453	655.7033081054688	873.3564453125	36.49455642700195	729.7010498046875	753.1821899414062	32.47894287109375	599.747314453125	
